<svg width="64" height="64" viewBox="0 0 64 64" fill="none" xmlns="http://www.w3.org/2000/svg">
<rect width="64" height="64" rx="32" fill="#141516"/>
<path d="M32.6369 50.576C30.3969 50.576 28.2849 50.176 26.3009 49.376C24.3489 48.544 22.6529 47.376 21.2129 45.872C19.8049 44.368 18.7489 42.592 18.0449 40.544L24.1409 37.808C25.0369 39.76 26.2689 41.296 27.8369 42.416C29.4369 43.536 31.1969 44.096 33.1169 44.096C34.1409 44.096 35.0209 43.936 35.7569 43.616C36.4929 43.296 37.0689 42.864 37.4849 42.32C37.9009 41.744 38.1089 41.072 38.1089 40.304C38.1089 39.472 37.8529 38.768 37.3409 38.192C36.8289 37.584 36.0289 37.104 34.9409 36.752L27.9329 34.448C25.0849 33.52 22.9409 32.208 21.5009 30.512C20.0609 28.784 19.3409 26.72 19.3409 24.32C19.3409 22.208 19.8529 20.352 20.8769 18.752C21.9329 17.152 23.3889 15.904 25.2449 15.008C27.1329 14.112 29.2929 13.664 31.7249 13.664C33.8689 13.664 35.8529 14.032 37.6769 14.768C39.5009 15.504 41.0689 16.544 42.3809 17.888C43.7249 19.232 44.7329 20.848 45.4049 22.736L39.3569 25.472C38.6849 23.808 37.6769 22.512 36.3329 21.584C34.9889 20.624 33.4529 20.144 31.7249 20.144C30.7329 20.144 29.8529 20.304 29.0849 20.624C28.3169 20.944 27.7249 21.408 27.3089 22.016C26.8929 22.592 26.6849 23.264 26.6849 24.032C26.6849 24.864 26.9569 25.6 27.5009 26.24C28.0449 26.848 28.8609 27.328 29.9489 27.68L36.8129 29.888C39.6929 30.816 41.8369 32.112 43.2449 33.776C44.6849 35.44 45.4049 37.472 45.4049 39.872C45.4049 41.952 44.8609 43.808 43.7729 45.44C42.6849 47.04 41.1809 48.304 39.2609 49.232C37.3729 50.128 35.1649 50.576 32.6369 50.576Z" fill="white"/>
</svg>
